<svg width="14" height="8" viewBox="0 0 14 8" fill="none" xmlns="http://www.w3.org/2000/svg">
<path id="Vector" d="M0.66128 1.26923C0.742476 1.10648 1.25918 0.627522 1.4265 0.557771C1.59135 0.488021 1.82756 0.488021 1.99241 0.557771C2.09575 0.599621 2.5042 0.976274 4.50951 2.86884L6.90112 5.12876L9.30749 2.85954C11.9698 0.34387 11.7828 0.501971 12.1174 0.501971C12.3634 0.504296 12.4742 0.564747 12.7965 0.869324C13.1311 1.18553 13.2 1.29945 13.2 1.54823C13.2 1.67146 13.1852 1.73888 13.141 1.82723C13.0942 1.92023 12.5258 2.46894 10.1711 4.68933C7.77706 6.94692 7.24067 7.44215 7.15947 7.46773C7.002 7.51888 6.73627 7.50725 6.59356 7.4468C6.49021 7.40263 5.98581 6.9353 3.59912 4.68003C0.410308 1.6668 0.602226 1.86908 0.602226 1.54823C0.602226 1.425 0.616991 1.35758 0.66128 1.26923Z" fill="#270A05"/>
</svg>
