<svg width="110" height="40" viewBox="0 0 110 40" fill="none" xmlns="http://www.w3.org/2000/svg">
<g id="Carousel">
<g id="Left Carousel">
<circle id="Ellipse 45" cx="20" cy="20" r="19.25" transform="rotate(-180 20 20)" stroke="#270A05" stroke-width="1.5"/>
<path id="Arrow 1" d="M26.4009 20.75C26.8151 20.75 27.1509 20.4142 27.1509 20C27.1509 19.5858 26.8151 19.25 26.4009 19.25L26.4009 20.75ZM13.0705 19.4697C12.7777 19.7626 12.7777 20.2374 13.0705 20.5303L17.8435 25.3033C18.1364 25.5962 18.6113 25.5962 18.9042 25.3033C19.1971 25.0104 19.1971 24.5355 18.9042 24.2426L14.6615 20L18.9042 15.7574C19.1971 15.4645 19.1971 14.9896 18.9042 14.6967C18.6113 14.4038 18.1364 14.4038 17.8435 14.6967L13.0705 19.4697ZM26.4009 19.25L13.6009 19.25L13.6009 20.75L26.4009 20.75L26.4009 19.25Z" fill="#270A05"/>
</g>
<g id="Right Carousel">
<circle id="Ellipse 45_2" cx="20" cy="20" r="19.25" transform="matrix(1 0 0 -1 70 40)" stroke="#270A05" stroke-width="1.5"/>
<path id="Arrow 1_2" d="M83.5991 20.75C83.1849 20.75 82.8491 20.4142 82.8491 20C82.8491 19.5858 83.1849 19.25 83.5991 19.25L83.5991 20.75ZM96.9295 19.4697C97.2223 19.7626 97.2223 20.2374 96.9295 20.5303L92.1565 25.3033C91.8636 25.5962 91.3887 25.5962 91.0958 25.3033C90.8029 25.0104 90.8029 24.5355 91.0958 24.2426L95.3385 20L91.0958 15.7574C90.8029 15.4645 90.8029 14.9896 91.0958 14.6967C91.3887 14.4038 91.8636 14.4038 92.1565 14.6967L96.9295 19.4697ZM83.5991 19.25L96.3991 19.25L96.3991 20.75L83.5991 20.75L83.5991 19.25Z" fill="#270A05"/>
</g>
</g>
</svg>
