<svg width="137" height="37" viewBox="0 0 137 37" fill="none" xmlns="http://www.w3.org/2000/svg">
<g id="Social icons">
<g id="Twitter">
<path id="Oval 10 Copy" opacity="0.25" fill-rule="evenodd" clip-rule="evenodd" d="M118.5 36C128.164 36 136 28.165 136 18.5C136 8.83502 128.164 1 118.5 1C108.835 1 101 8.83502 101 18.5C101 28.165 108.835 36 118.5 36Z" stroke="white" stroke-width="1.5"/>
<path id="Shape" d="M124.22 15.2647C124.138 15.1729 124.008 15.1498 123.9 15.2064C123.833 15.2416 123.708 15.2878 123.559 15.3334C123.747 15.0762 123.898 14.7882 123.965 14.5293C123.994 14.4177 123.951 14.3001 123.86 14.2336C123.768 14.1677 123.645 14.1677 123.553 14.2336C123.409 14.3375 122.71 14.6497 122.268 14.7508C121.269 13.8511 120.107 13.7577 118.899 14.4831C117.917 15.0729 117.703 16.2721 117.745 17.0031C115.497 16.7805 114.099 15.5593 113.313 14.5485C113.258 14.4776 113.169 14.4403 113.086 14.4458C112.998 14.4524 112.919 14.5024 112.874 14.5799C112.502 15.2257 112.399 15.9396 112.577 16.6447C112.674 17.0295 112.844 17.3686 113.041 17.6434C112.947 17.5956 112.855 17.5357 112.769 17.4642C112.69 17.3972 112.58 17.3845 112.486 17.429C112.393 17.4747 112.334 17.5714 112.334 17.6775C112.334 18.8882 113.07 19.6962 113.758 20.1183C113.647 20.1045 113.531 20.0792 113.414 20.0424C113.313 20.0111 113.204 20.0424 113.135 20.1238C113.065 20.2046 113.049 20.32 113.092 20.4184C113.478 21.2972 114.21 21.9017 115.116 22.121C114.325 22.5986 113.267 22.8328 112.297 22.7179C112.172 22.6998 112.052 22.7817 112.013 22.9059C111.973 23.0301 112.025 23.1664 112.136 23.2301C113.606 24.0793 114.936 24.3827 116.084 24.3827C117.756 24.3827 119.047 23.7407 119.832 23.2038C121.95 21.7583 123.27 19.163 123.086 16.841C123.425 16.5832 123.933 16.1072 124.248 15.5955C124.313 15.4922 124.301 15.3559 124.22 15.2647Z" fill="white"/>
</g>
<g id="Facebook">
<path id="Oval 10" opacity="0.25" fill-rule="evenodd" clip-rule="evenodd" d="M68.4995 36C78.1645 36 85.9995 28.165 85.9995 18.5C85.9995 8.83502 78.1645 1 68.4995 1C58.8345 1 50.9995 8.83502 50.9995 18.5C50.9995 28.165 58.8345 36 68.4995 36Z" stroke="white" stroke-width="1.5"/>
<path id="Shape_2" d="M70.0927 14.0208H71.7011C71.8491 14.0208 71.9692 13.9076 71.9692 13.7682V12.2526C71.9692 12.1132 71.8491 12 71.7011 12H70.0927C68.4672 12 67.144 13.2463 67.144 14.7786V16.5468H65.2676C65.1196 16.5468 64.9995 16.6599 64.9995 16.7994V18.3149C64.9995 18.4544 65.1196 18.5675 65.2676 18.5675H67.144V23.8721C67.144 24.0115 67.2641 24.1247 67.4121 24.1247H69.0205C69.1684 24.1247 69.2885 24.0115 69.2885 23.8721V18.5675H71.165C71.2802 18.5675 71.3826 18.4978 71.4196 18.3948L71.9557 16.8792C71.9831 16.8024 71.9692 16.7175 71.9188 16.6513C71.8678 16.5857 71.7874 16.5468 71.7011 16.5468H69.2885V14.7786C69.2885 14.3608 69.6493 14.0208 70.0927 14.0208Z" fill="white"/>
</g>
<g id="Linkedin">
<path id="Oval 10 Copy 3" opacity="0.25" fill-rule="evenodd" clip-rule="evenodd" d="M18.4995 36C28.1645 36 35.9995 28.165 35.9995 18.5C35.9995 8.83502 28.1645 1 18.4995 1C8.83453 1 0.999512 8.83502 0.999512 18.5C0.999512 28.165 8.83453 36 18.4995 36Z" stroke="white" stroke-width="1.5"/>
<g id="Group 36">
<path id="Oval" d="M14.4832 14.9671C15.3025 14.9671 15.9667 14.3029 15.9667 13.4835C15.9667 12.6642 15.3025 12 14.4832 12C13.6638 12 12.9996 12.6642 12.9996 13.4835C12.9996 14.3029 13.6638 14.9671 14.4832 14.9671Z" fill="white"/>
<path id="Shape_3" d="M15.7194 15.958H13.2468C13.1103 15.958 12.9995 16.0688 12.9995 16.2053V23.623C12.9995 23.7595 13.1103 23.8703 13.2468 23.8703H15.7194C15.8558 23.8703 15.9666 23.7595 15.9666 23.623V16.2053C15.9666 16.0688 15.8558 15.958 15.7194 15.958Z" fill="white"/>
<path id="Shape_4" d="M23.0871 15.5464C22.0303 15.1844 20.7084 15.5024 19.9157 16.0726C19.8885 15.9662 19.7916 15.8871 19.6764 15.8871H17.2038C17.0673 15.8871 16.9565 15.9979 16.9565 16.1344V23.5521C16.9565 23.6886 17.0673 23.7994 17.2038 23.7994H19.6764C19.8129 23.7994 19.9236 23.6886 19.9236 23.5521V18.2212C20.3232 17.8771 20.838 17.7673 21.2593 17.9463C21.6678 18.1189 21.9017 18.5402 21.9017 19.1015V23.5521C21.9017 23.6886 22.0125 23.7994 22.149 23.7994H24.6216C24.758 23.7994 24.8688 23.6886 24.8688 23.5521V18.6035C24.8406 16.5715 23.8847 15.8194 23.0871 15.5464Z" fill="white"/>
</g>
</g>
</g>
</svg>
